<svg width="64" height="64" viewBox="0 0 64 64" fill="none" xmlns="http://www.w3.org/2000/svg">
<rect width="64" height="64" rx="16" fill="white"/>
<g clip-path="url(#clip0_12_4970)">
<path d="M20.8334 25H12V52H20.8334V25Z" fill="#E8EAEA"/>
<path d="M52 25H43.1666V52H52V25Z" fill="#E8EAEA"/>
<path d="M12 25.5H52C52 24.5 51.1666 23.6666 50.1666 23.6666H13.8334C12.8334 23.6666 12 24.5 12 25.5Z" fill="#FFA679"/>
<path d="M43.1667 20.4999H20.8334V51.9999H43.1667V20.4999Z" fill="#F2F2F2"/>
<path d="M44.4167 18.6667H19.5834C19.0834 18.6667 18.6667 19.0833 18.6667 19.5833C18.6667 20.0833 19.0834 20.5 19.5834 20.5H44.4167C44.9167 20.5 45.3334 20.0834 45.3334 19.5834C45.3334 19.0834 44.9167 18.6667 44.4167 18.6667Z" fill="#FFA679"/>
<path d="M18.3334 27.5H14.5V31.75H18.3334V27.5Z" fill="#42A8C3"/>
<path d="M18.3334 33.4168H14.5V37.6668H18.3334V33.4168Z" fill="#42A8C3"/>
<path d="M18.3334 39.3333H14.5V43.5833H18.3334V39.3333Z" fill="#42A8C3"/>
<path d="M18.3334 45.2499H14.5V49.4999H18.3334V45.2499Z" fill="#42A8C3"/>
<path d="M49.5 27.5H45.6666V31.75H49.5V27.5Z" fill="#42A8C3"/>
<path d="M49.5 33.4168H45.6666V37.6668H49.5V33.4168Z" fill="#42A8C3"/>
<path d="M49.5 39.3333H45.6666V43.5833H49.5V39.3333Z" fill="#42A8C3"/>
<path d="M49.5 45.2499H45.6666V49.4999H49.5V45.2499Z" fill="#42A8C3"/>
<path d="M27.5 34.9167H23.3334V39.1667H27.5V34.9167Z" fill="#8ECBDB"/>
<path d="M36.4166 41.5833H27.5V52H36.4166V41.5833Z" fill="#056D8A"/>
<path d="M52 50.25H12V52H52V50.25Z" fill="#ACB3BA"/>
<path d="M27.5 23.0833H23.3334V27.3333H27.5V23.0833Z" fill="#8ECBDB"/>
<path d="M27.5 29.0001H23.3334V33.2501H27.5V29.0001Z" fill="#8ECBDB"/>
<path d="M34.0833 23.0833H29.9166V27.3333H34.0833V23.0833Z" fill="#8ECBDB"/>
<path d="M34.0833 29.0001H29.9166V33.2501H34.0833V29.0001Z" fill="#8ECBDB"/>
<path d="M34.0833 34.9167H29.9166V39.1667H34.0833V34.9167Z" fill="#8ECBDB"/>
<path d="M40.6668 23.0833H36.5001V27.3333H40.6668V23.0833Z" fill="#8ECBDB"/>
<path d="M40.6668 29.0001H36.5001V33.2501H40.6668V29.0001Z" fill="#8ECBDB"/>
<path d="M40.6668 34.9167H36.5001V39.1667H40.6668V34.9167Z" fill="#8ECBDB"/>
</g>
<defs>
<clipPath id="clip0_12_4970">
<rect width="40" height="40" fill="white" transform="translate(12 12)"/>
</clipPath>
</defs>
</svg>
